<svg width="50" height="50" viewBox="0 0 50 50" fill="none" xmlns="http://www.w3.org/2000/svg">
<g clip-path="url(#clip0)">
<path d="M26.6973 0.0779297C26.1653 0.0443359 25.6353 0 25.0976 0C18.9381 0 13.0398 2.34316 8.47791 6.40654L25 22.9286L31.3132 16.6154C26.9123 12.2145 25.2831 5.93623 26.6973 0.0779297Z" fill="#F4F4F4"/>
<path d="M6.40654 8.47797C2.34316 13.0399 0 18.9381 0 25.0977C0 25.6358 0.0443359 26.1662 0.0779297 26.6983C5.93643 25.2849 12.2157 26.9123 16.6154 31.3132L22.9286 25L6.40654 8.47797Z" fill="#F4F4F4"/>
<path d="M29.6158 0.422638C28.2874 5.3992 29.6315 10.791 33.3846 14.5441L41.6198 6.30897C38.1933 3.25701 34.0717 1.23533 29.6158 0.422638Z" fill="#F4F4F4"/>
<path d="M43.6911 8.38031L35.6722 16.3993C39.6376 19.0172 44.6157 19.4976 48.9784 17.8325C47.9529 14.352 46.1518 11.1428 43.6911 8.38031Z" fill="#F4F4F4"/>
<path d="M16.397 35.6743L8.38019 43.6911C11.1489 46.1574 14.3663 47.96 17.8559 48.9844C18.2776 47.889 18.5765 46.7407 18.7239 45.5511C19.1594 42.0252 18.3116 38.5584 16.397 35.6743Z" fill="#F4F4F4"/>
<path d="M25 27.0714L18.4962 33.5752C21.0327 37.1282 22.1794 41.4799 21.6308 45.9115C21.472 47.1948 21.1645 48.4371 20.7397 49.63C22.1041 49.8587 23.4911 50 24.9023 50C31.0619 50 36.9601 47.6569 41.5221 43.5935L25 27.0714Z" fill="#F4F4F4"/>
<path d="M49.6285 20.7285C47.7292 21.4002 45.7425 21.7537 43.753 21.7537C40.1726 21.7537 36.623 20.626 33.5944 18.477L27.0714 24.9999L43.5935 41.522C47.6569 36.9601 50.0001 31.0618 50.0001 24.9023C50.0001 23.4871 49.8585 22.0963 49.6285 20.7285Z" fill="#F4F4F4"/>
<path d="M0.422546 29.6156C1.23524 34.0715 3.25692 38.1932 6.30887 41.6196L14.5439 33.3846C10.79 29.6305 5.39676 28.2882 0.422546 29.6156Z" fill="#F4F4F4"/>
</g>
<defs>
<clipPath id="clip0">
<rect width="50" height="50" fill="white"/>
</clipPath>
</defs>
</svg>
