<svg width="45" height="45" viewBox="0 0 45 45" fill="none" xmlns="http://www.w3.org/2000/svg">
<path d="M43.7132 6.15182C43.0512 5.48868 41.9771 5.48754 41.3151 6.14901L20.969 26.4414L13.6282 18.4685C12.9939 17.78 11.9215 17.7354 11.2318 18.3696C10.5426 19.0039 10.4985 20.0769 11.1328 20.766L19.6693 30.0368C19.9819 30.3766 20.4194 30.5739 20.8808 30.5835C20.8932 30.584 20.9051 30.584 20.917 30.584C21.3653 30.584 21.7966 30.4059 22.1143 30.0894L43.7098 8.55044C44.3735 7.88907 44.3746 6.81495 43.7132 6.15182Z" fill="#E7E7DE"/>
<path d="M43.304 20.804C42.3672 20.804 41.608 21.5632 41.608 22.5C41.608 33.0366 33.0366 41.608 22.5 41.608C11.964 41.608 3.39196 33.0366 3.39196 22.5C3.39196 11.964 11.964 3.39196 22.5 3.39196C23.4367 3.39196 24.196 2.63276 24.196 1.69603C24.196 0.759199 23.4367 0 22.5 0C10.0934 0 0 10.0934 0 22.5C0 34.9061 10.0934 45 22.5 45C34.9061 45 45 34.9061 45 22.5C45 21.5633 44.2408 20.804 43.304 20.804Z" fill="#E7E7DE"/>
</svg>
