<?xml version="1.0"?>
<svg xmlns="http://www.w3.org/2000/svg" xmlns:xlink="http://www.w3.org/1999/xlink" xmlns:svgjs="http://svgjs.com/svgjs" version="1.1" width="512" height="512" x="0" y="0" viewBox="0 0 512 512" style="enable-background:new 0 0 512 512" xml:space="preserve" class=""><g><g xmlns="http://www.w3.org/2000/svg"><path d="m406.45 285.88c-.232 0-.466.001-.699.002-4.611-13.893-12.913-26.417-24.121-36.153-.948-.823-1.913-1.621-2.893-2.397.283-4.248.443-8.508.443-12.742 0-104.54-85.05-189.59-189.59-189.59s-189.59 85.05-189.59 189.59c0 34.013 9.116 67.381 26.363 96.497 14.563 24.585 34.56 45.611 58.28 61.41-2.02 7.12-3.113 14.625-3.113 22.383 0 45.281 36.839 82.12 82.12 82.12h242.8c58.2 0 105.55-47.354 105.55-105.56s-47.35-105.56-105.55-105.56zm-376.45-51.29c0-87.998 71.592-159.59 159.59-159.59 87.286 0 158.417 70.441 159.563 157.46-36.333-9.777-73.546 6.569-91.941 37.352-26.494-5.625-55.15 1.379-76.363 20.943-12.464 11.494-21.151 26.215-25.193 42.392-23.426 2.274-44 14.435-57.492 32.243-42.367-29.701-68.164-78.581-68.164-130.8zm376.45 232.41h-242.8c-28.739 0-52.12-23.381-52.12-52.12 0-30.497 26.242-54.275 55.66-51.995 8.221.637 15.398-5.466 16.104-13.67 3.139-36.525 41.165-61.211 76.346-47.464 7.753 3.03 16.497-.839 19.47-8.614 7.663-20.042 27.233-33.507 48.699-33.507 25.592 0 47.742 19.046 51.525 44.302 1.216 8.119 8.741 13.748 16.867 12.64 3.356-.459 6.805-.692 10.248-.692 41.658 0 75.55 33.896 75.55 75.56s-33.891 75.56-75.549 75.56z" fill="#000000" data-original="#000000" style="" class=""/><path d="m153.889 264.591c0-24.813-20.187-45-45-45s-45 20.187-45 45 20.187 45 45 45 45-20.187 45-45zm-60 0c0-8.271 6.729-15 15-15s15 6.729 15 15-6.729 15-15 15-15-6.729-15-15z" fill="#000000" data-original="#000000" style="" class=""/><path d="m189.591 190c24.813 0 45-20.187 45-45s-20.187-45-45-45-45 20.187-45 45 20.186 45 45 45zm0-60c8.271 0 15 6.729 15 15s-6.729 15-15 15-15-6.729-15-15 6.728-15 15-15z" fill="#000000" data-original="#000000" style="" class=""/><circle cx="234.591" cy="227.822" r="15" fill="#000000" data-original="#000000" style="" class=""/><circle cx="90.792" cy="167.1" r="15" fill="#000000" data-original="#000000" style="" class=""/><circle cx="286.308" cy="173.482" r="15" fill="#000000" data-original="#000000" style="" class=""/><path d="m444.369 197.1h11.315v11.315c0 8.284 6.716 15 15 15s15-6.716 15-15v-11.315h11.316c8.284 0 15-6.716 15-15s-6.716-15-15-15h-11.315v-11.316c0-8.284-6.716-15-15-15s-15 6.716-15 15v11.316h-11.315c-8.284 0-15 6.716-15 15s6.715 15 14.999 15z" fill="#000000" data-original="#000000" style="" class=""/><path d="m339.558 71.315h11.316v11.315c0 8.284 6.716 15 15 15s15-6.716 15-15v-11.315h11.315c8.284 0 15-6.716 15-15s-6.716-15-15-15h-11.315v-11.315c0-8.284-6.716-15-15-15s-15 6.716-15 15v11.315h-11.316c-8.284 0-15 6.716-15 15s6.715 15 15 15z" fill="#000000" data-original="#000000" style="" class=""/></g></g></svg>
