<?xml version="1.0"?>
<svg xmlns="http://www.w3.org/2000/svg" xmlns:xlink="http://www.w3.org/1999/xlink" xmlns:svgjs="http://svgjs.com/svgjs" version="1.1" width="512" height="512" x="0" y="0" viewBox="0 0 512 512" style="enable-background:new 0 0 512 512" xml:space="preserve" class=""><g><path xmlns="http://www.w3.org/2000/svg" d="m426.164062 207.167969c-15.0625 0-29.773437 3.972656-42.6875 11.386719-13.835937-50.734376-60.46875-87.300782-114.347656-87.300782-5.601562 0-11.113281.414063-16.527344 1.175782.097657-2.015626.160157-4.03125.160157-6.046876 0-69.6875-56.695313-126.382812-126.378907-126.382812-69.6875 0-126.382812 56.695312-126.382812 126.382812 0 27.917969 8.925781 54.386719 25.804688 76.539063 12.71875 16.683594 29.589843 30.007813 48.585937 38.632813-12.632813 13.472656-20.390625 31.5625-20.390625 51.445312 0 5.523438 4.476562 10 10 10h179c5.523438 0 10-4.476562 10-10s-4.476562-10-10-10h-168.09375c4.71875-25.734375 27.3125-45.296875 54.394531-45.296875 9.53125 0 18.945313 2.480469 27.222657 7.171875 2.902343 1.644531 6.4375 1.734375 9.417968.238281 2.984375-1.5 5.023438-4.386719 5.4375-7.699219 6.140625-49.117187 48.164063-86.160156 97.75-86.160156 49.285156 0 91.273438 36.792969 97.667969 85.585938.476563 3.644531 2.914063 6.730468 6.347656 8.042968 3.429688 1.308594 7.308594.632813 10.09375-1.765624 11.9375-10.285157 27.1875-15.953126 42.929688-15.953126 32.902343 0 60.242187 24.261719 65.074219 55.835938h-168.242188c-5.523438 0-10 4.476562-10 10s4.476562 10 10 10h179c5.523438 0 10-4.476562 10-10 0-47.328125-38.503906-85.832031-85.835938-85.832031zm-272.242187 14.675781c-7.890625-2.726562-16.222656-4.144531-24.621094-4.144531-13.320312 0-25.835937 3.492187-36.699219 9.585937-42.957031-14.382812-72.601562-55.277344-72.601562-100.902344 0-58.660156 47.722656-106.382812 106.382812-106.382812 58.65625 0 106.378907 47.722656 106.378907 106.382812 0 3.605469-.203125 7.214844-.5625 10.796876-38.414063 12.632812-68.566407 44.410156-78.277344 84.664062zm0 0" fill="#ffffff" data-original="#000000" style="" class=""/><path xmlns="http://www.w3.org/2000/svg" d="m426.320312 345.316406-27.058593 27.054688c-3.90625 3.90625-3.90625 10.238281 0 14.144531 1.953125 1.953125 4.511719 2.929687 7.070312 2.929687 2.558594 0 5.117188-.976562 7.070313-2.929687l27.058594-27.058594c3.90625-3.902343 3.90625-10.234375 0-14.140625s-10.234376-3.90625-14.140626 0zm0 0" fill="#ffffff" data-original="#000000" style="" class=""/><path xmlns="http://www.w3.org/2000/svg" d="m317.128906 386.515625 27.058594-27.058594c3.90625-3.90625 3.90625-10.238281 0-14.144531-3.90625-3.902344-10.238281-3.902344-14.144531 0l-27.058594 27.058594c-3.902344 3.90625-3.902344 10.238281 0 14.144531 1.953125 1.953125 4.511719 2.929687 7.074219 2.929687 2.558594 0 5.117187-.976562 7.070312-2.929687zm0 0" fill="#ffffff" data-original="#000000" style="" class=""/><path xmlns="http://www.w3.org/2000/svg" d="m220.851562 386.515625 27.058594-27.058594c3.90625-3.90625 3.90625-10.238281 0-14.144531-3.90625-3.902344-10.234375-3.902344-14.140625 0l-27.058593 27.058594c-3.90625 3.90625-3.90625 10.238281 0 14.144531 1.953124 1.953125 4.511718 2.929687 7.070312 2.929687s5.117188-.976562 7.070312-2.929687zm0 0" fill="#ffffff" data-original="#000000" style="" class=""/><path xmlns="http://www.w3.org/2000/svg" d="m124.578125 386.515625 27.058594-27.058594c3.902343-3.90625 3.902343-10.238281 0-14.144531-3.90625-3.902344-10.238281-3.902344-14.144531 0l-27.058594 27.058594c-3.90625 3.90625-3.90625 10.238281 0 14.144531 1.953125 1.953125 4.511718 2.929687 7.070312 2.929687s5.121094-.976562 7.074219-2.929687zm0 0" fill="#ffffff" data-original="#000000" style="" class=""/><path xmlns="http://www.w3.org/2000/svg" d="m336.765625 427.871094-27.058594 27.058594c-3.90625 3.90625-3.90625 10.234374 0 14.140624 1.953125 1.953126 4.511719 2.929688 7.070313 2.929688s5.117187-.976562 7.070312-2.929688l27.058594-27.054687c3.90625-3.90625 3.90625-10.238281 0-14.144531s-10.234375-3.90625-14.140625 0zm0 0" fill="#ffffff" data-original="#000000" style="" class=""/><path xmlns="http://www.w3.org/2000/svg" d="m240.488281 427.871094-27.058593 27.058594c-3.90625 3.90625-3.90625 10.234374 0 14.140624 1.953124 1.953126 4.511718 2.929688 7.070312 2.929688s5.117188-.976562 7.070312-2.929688l27.058594-27.054687c3.90625-3.90625 3.90625-10.238281 0-14.144531-3.902344-3.90625-10.234375-3.90625-14.140625 0zm0 0" fill="#ffffff" data-original="#000000" style="" class=""/><path xmlns="http://www.w3.org/2000/svg" d="m144.214844 427.871094-27.058594 27.058594c-3.90625 3.90625-3.90625 10.234374 0 14.140624 1.953125 1.953126 4.511719 2.929688 7.070312 2.929688 2.558594 0 5.117188-.976562 7.070313-2.929688l27.058594-27.054687c3.90625-3.90625 3.90625-10.238281 0-14.144531s-10.238281-3.90625-14.140625 0zm0 0" fill="#ffffff" data-original="#000000" style="" class=""/><path xmlns="http://www.w3.org/2000/svg" d="m283 283c-2.628906 0-5.210938 1.070312-7.070312 2.929688-1.859376 1.859374-2.929688 4.441406-2.929688 7.070312s1.070312 5.210938 2.929688 7.070312c1.859374 1.859376 4.441406 2.929688 7.070312 2.929688s5.210938-1.070312 7.070312-2.929688c1.859376-1.859374 2.929688-4.441406 2.929688-7.070312s-1.070312-5.210938-2.929688-7.070312c-1.859374-1.859376-4.441406-2.929688-7.070312-2.929688zm0 0" fill="#ffffff" data-original="#000000" style="" class=""/></g></svg>
