<svg width="25" height="25" viewBox="0 0 25 25" fill="none" xmlns="http://www.w3.org/2000/svg">
<path d="M8.81348 25H4.80995C4.14124 25 3.59726 24.456 3.59726 23.7873V14.7572H1.26152C0.592804 14.7572 0.0488281 14.213 0.0488281 13.5445V9.67502C0.0488281 9.00631 0.592804 8.46233 1.26152 8.46233H3.59726V6.52466C3.59726 4.60338 4.20055 2.96879 5.34172 1.79787C6.48804 0.621605 8.09002 0 9.97448 0L13.0278 0.00495908C13.6953 0.00610351 14.2384 0.550079 14.2384 1.21765V4.81033C14.2384 5.47905 13.6946 6.02302 13.026 6.02302L10.9703 6.02379C10.3434 6.02379 10.1837 6.14948 10.1496 6.18801C10.0933 6.25191 10.0264 6.43253 10.0264 6.9313V8.46214H12.8716C13.0857 8.46214 13.2933 8.51497 13.4716 8.61454C13.8563 8.8295 14.0955 9.23595 14.0955 9.67521L14.094 13.5447C14.094 14.213 13.55 14.757 12.8813 14.757H10.0264V23.7873C10.0264 24.456 9.48219 25 8.81348 25ZM5.06287 23.5344H8.56056V14.101C8.56056 13.6545 8.92391 13.2914 9.37023 13.2914H12.6284L12.6297 9.92794H9.37004C8.92372 9.92794 8.56056 9.56478 8.56056 9.11827V6.9313C8.56056 6.35872 8.61874 5.70755 9.05094 5.21812C9.57317 4.62646 10.3962 4.55818 10.9699 4.55818L12.7728 4.55742V1.47018L9.97334 1.46561C6.94485 1.46561 5.06287 3.40423 5.06287 6.52466V9.11827C5.06287 9.56459 4.69971 9.92794 4.25339 9.92794H1.51443V13.2914H4.25339C4.69971 13.2914 5.06287 13.6545 5.06287 14.101V23.5344ZM13.0249 1.47057H13.0251H13.0249Z" fill="black"/>
</svg>
