<svg height="512" viewBox="0 0 512 512" width="512" xmlns="http://www.w3.org/2000/svg"><g id="Out_line" data-name="Out line"><path d="m213.38574 166.23926-161.33008 91.41992 7.88868 13.91992 161.33007-91.41992a32.02908 32.02908 0 0 1 34.82325 2.127l139.14062 103.06734 9.52344-12.85694-139.14063-103.06738a48.037 48.037 0 0 0 -52.23535-3.18994z"/><path d="m155.261 248.312h16v183.127h-16z" transform="matrix(.657 -.754 .754 .657 -200.279 239.832)"/><path d="m189.632 228.164h16v179.716h-16z" transform="matrix(.645 -.764 .764 .645 -172.852 263.82)"/><path d="m223.972 208.02h16.001v176.298h-16.001z" transform="matrix(.633 -.774 .774 .633 -144.142 288.092)"/><path d="m258.278 187.879h16v172.87h-16z" transform="matrix(.621 -.784 .784 .621 -114.097 312.626)"/><path d="m292.657 167.693h16v169.708h-16z" transform="matrix(.608 -.794 .794 .608 -82.691 337.512)"/><path d="m461.1377 16a42.95178 42.95178 0 0 0 -28.293 10.63086 419.655 419.655 0 0 0 -90.75684 112.33887l-3.28418 5.91113-32.26368 6.45258-40.87793-30.27973a48.03387 48.03387 0 0 0 -52.23535-3.19043l-175.47848 99.4375a42.7153 42.7153 0 0 0 -21.58886 32.58838 44.23219 44.23219 0 0 0 -.26514 6.11084h-.09424v46.35693a48.10735 48.10735 0 0 0 15.63477 35.44727l147.85644 134.999a47.91257 47.91257 0 0 0 58.99024 4.49073l172.14455-114.76317a47.90157 47.90157 0 0 0 21.374-39.93799v-50.51684c.0061-.19483.02515-.38648.0293-.58179a51.22524 51.22524 0 0 0 -20.96582-42.73633l-19.06348-14.12103v-36.4986a316.42093 316.42093 0 0 1 79.82324-91.42138l10.71876-8.33643a34.8624 34.8624 0 0 0 -21.4043-62.38037zm-59.3867 333.21826-172.14455 114.76319a31.94348 31.94348 0 0 1 -39.32715-2.99415l-147.85645-134.99902a32.07 32.07 0 0 1 -10.42285-23.63135v-13.93213l147.26758 135.94043a47.807 47.807 0 0 0 59.47754 4.46973l170.53613-115.52396h.001a53.253 53.253 0 0 0 6.71775-5.40866v14.69043a31.93682 31.93682 0 0 1 -14.249 26.62549zm14.28222-78.061a35.4121 35.4121 0 0 1 -15.72463 28.90674l-170.53711 115.52438a31.87082 31.87082 0 0 1 -39.65136-2.98l-149.3125-137.82713a27.143 27.143 0 0 1 5.02929-43.56055l175.47852-99.4375a32.02533 32.02533 0 0 1 34.82324 2.127l145.40133 107.70455a35.41258 35.41258 0 0 1 14.4932 29.54248zm56.68553-205.40626-10.71775 8.33591a332.41688 332.41688 0 0 0 -84.94727 97.94385 8.00423 8.00423 0 0 0 -1.05373 3.96924v26.785l-52.115-38.60345 21.68433-4.33685a8.00008 8.00008 0 0 0 5.42382-3.95948l5.08106-9.145a403.72348 403.72348 0 0 1 87.30567-108.06834 26.96186 26.96186 0 0 1 17.75782-6.67188 18.86246 18.86246 0 0 1 11.58105 33.751z"/></g></svg>